<svg xmlns="http://www.w3.org/2000/svg" viewBox="0 0 24 24" role="img" aria-label="GitHub">
  <path fill="currentColor" d="M12 .8A11.2 11.2 0 0 0 8.5 22.6c.56.1.77-.24.77-.54v-2c-3.12.68-3.78-1.34-3.78-1.34-.51-1.3-1.25-1.65-1.25-1.65-1.02-.7.08-.68.08-.68 1.13.08 1.73 1.16 1.73 1.16 1 .1.25 2.64 2.65 1.9.1-.73.39-1.22.71-1.5-2.49-.28-5.1-1.24-5.1-5.54 0-1.23.44-2.23 1.16-3.02-.12-.28-.5-1.43.11-2.98 0 0 .94-.3 3.08 1.15A10.7 10.7 0 0 1 12 7.17c.95 0 1.9.13 2.8.38 2.14-1.45 3.08-1.15 3.08-1.15.61 1.55.23 2.7.11 2.98.72.79 1.16 1.79 1.16 3.02 0 4.31-2.62 5.25-5.12 5.53.4.35.76 1.04.76 2.1v3.03c0 .3.2.65.78.54A11.2 11.2 0 0 0 12 .8Z"/>
</svg>
